<svg xmlns="http://www.w3.org/2000/svg" viewBox="0 0 1024 1024">
  <style>
    g { fill: #342f28; }
    @media (prefers-color-scheme: dark) {
      g { fill: #f1ede5; }
    }
  </style>
  <g transform="translate(0,1024) scale(0.1,-0.1)">
    <path d="M2154 7734 c-12 -3 -32 -16 -45 -30 -84 -90 64 -435 277 -648 167 -166 378 -284 694 -389 278 -93 550 -157 1230 -293 398 -79 606 -127 619 -141 8 -8 -311 5 -559 23 -273 19 -572 54 -990 114 -409 58 -548 75 -556 67 -10 -9 41 -123 92 -204 158 -254 430 -405 798 -443 151 -16 648 -7 831 14 72 9 159 18 195 21 l65 5 -65 -26 c-290 -118 -672 -212 -927 -230 -57 -4 -103 -11 -103 -16 0 -50 88 -170 172 -233 90 -68 166 -103 298 -138 112 -30 121 -31 330 -31 195 0 226 2 337 27 66 14 177 44 244 66 68 22 124 39 126 37 7 -7 -83 -90 -140 -128 -176 -120 -519 -210 -695 -181 l-62 10 -152 -196 c-265 -341 -459 -573 -787 -941 -183 -206 -361 -391 -729 -761 -212 -212 -391 -397 -398 -410 -7 -13 -13 -38 -14 -56 0 -57 69 -89 220 -99 246 -17 511 113 677 333 33 43 138 195 235 338 96 143 194 287 217 320 46 65 209 265 217 265 3 0 -6 -19 -19 -42 -13 -24 -64 -119 -112 -213 -89 -174 -185 -355 -328 -619 -63 -117 -77 -150 -66 -157 47 -30 226 30 355 119 107 73 263 230 352 354 87 121 194 309 261 458 l56 125 170 6 c729 28 1448 277 1911 661 173 144 318 326 423 528 119 231 171 433 236 915 19 139 68 296 125 403 177 329 551 629 1175 943 167 85 315 170 315 182 0 10 -38 5 -228 -34 -335 -68 -752 -174 -1142 -290 l-235 -70 -100 50 c-180 91 -333 130 -506 131 -416 1 -845 -255 -1137 -679 l-49 -70 -124 77 c-533 333 -1254 674 -1896 897 -104 36 -198 70 -209 75 -54 22 -452 142 -564 170 -117 28 -268 45 -316 34z m4506 -810 c89 -28 156 -66 228 -128 30 -25 60 -46 68 -46 34 0 201 66 328 130 76 39 140 69 142 67 2 -2 -17 -19 -44 -37 -98 -70 -250 -200 -334 -287 -176 -184 -286 -368 -333 -559 -13 -54 -33 -175 -45 -269 -35 -291 -75 -443 -166 -628 -162 -329 -491 -597 -947 -773 -281 -108 -639 -182 -972 -199 l-120 -7 25 21 c14 12 66 50 115 86 145 105 228 166 312 230 255 194 502 433 626 606 118 166 203 364 238 562 5 29 13 150 19 269 11 252 28 374 72 506 33 100 108 235 161 290 88 93 201 159 307 181 30 6 64 13 75 15 42 9 173 -7 245 -30z"/>
    <path d="M6422 6730 c-43 -10 -98 -63 -113 -108 -25 -76 18 -172 91 -202 42 -17 134 -8 167 16 52 39 68 71 68 137 0 95 -46 147 -140 160 -22 3 -55 2 -73 -3z"/>
    <path d="M1972 6610 c-89 -54 -52 -164 78 -230 127 -65 421 -67 517 -4 29 19 40 61 21 80 -8 8 -50 23 -94 34 -43 10 -126 39 -183 65 -174 77 -275 94 -339 55z"/>
    <path d="M2295 6043 c-69 -20 -105 -56 -105 -104 0 -71 72 -107 193 -96 74 6 327 88 341 110 43 68 -279 136 -429 90z"/>
    <path d="M2921 5694 c-138 -37 -196 -113 -138 -180 18 -20 35 -28 73 -31 72 -7 188 53 273 142 34 35 60 69 56 75 -9 15 -202 11 -264 -6z"/>
  </g>
</svg>
